<svg xmlns="http://www.w3.org/2000/svg" width="1020" height="1200" viewBox="0 0 1020 1200" version="1.1"><path d="M 240 750 L 240 780 330 780 L 420 780 420 750 L 420 720 330 720 L 240 720 240 750 M 600 750 L 600 780 690 780 L 780 780 780 750 L 780 720 690 720 L 600 720 600 750 M 480 840 L 480 900 510 900 L 540 900 540 840 L 540 780 510 780 L 480 780 480 840" stroke="none" fill="#fddecc" fill-rule="evenodd"/><path d="M 240 690 L 240 720 270 720 L 300 720 300 690 L 300 660 270 660 L 240 660 240 690 M 420 690 L 420 720 450 720 L 480 720 480 690 L 480 660 450 660 L 420 660 420 690 M 540 690 L 540 720 570 720 L 600 720 600 690 L 600 660 570 660 L 540 660 540 690 M 720 690 L 720 720 750 720 L 780 720 780 690 L 780 660 750 660 L 720 660 720 690 M 420 960 L 420 1140 510 1140 L 600 1140 600 960 L 600 780 570 780 L 540 780 540 840 L 540 900 510 900 L 480 900 480 840 L 480 780 450 780 L 420 780 420 960" stroke="none" fill="#998c80" fill-rule="evenodd"/><path d="M 300 840 L 300 900 360 900 L 420 900 420 840 L 420 780 360 780 L 300 780 300 840 M 600 840 L 600 900 660 900 L 720 900 720 840 L 720 780 660 780 L 600 780 600 840" stroke="none" fill="#5288c6" fill-rule="evenodd"/><path d="M 300 30 L 300 60 270 60 L 240 60 240 120 L 240 180 330 180 L 420 180 420 240 L 420 300 360 300 L 300 300 300 270 L 300 240 180 240 L 60 240 60 330 L 60 420 30 420 L 0 420 0 450 L 0 480 30 480 L 60 480 60 570 L 60 660 120 660 L 180 660 180 600 L 180 540 210 540 L 240 540 240 480 L 240 420 330 420 L 420 420 420 450 L 420 480 450 480 L 480 480 480 450 L 480 420 540 420 L 600 420 600 450 L 600 480 660 480 L 720 480 720 450 L 720 420 780 420 L 840 420 840 450 L 840 480 810 480 L 780 480 780 510 L 780 540 810 540 L 840 540 840 600 L 840 660 900 660 L 960 660 960 540 L 960 420 900 420 L 840 420 840 360 L 840 300 900 300 L 960 300 960 270 L 960 240 840 240 L 720 240 720 210 L 720 180 750 180 L 780 180 780 120 L 780 60 750 60 L 720 60 720 30 L 720 0 660 0 L 600 0 600 30 L 600 60 570 60 L 540 60 540 30 L 540 0 510 0 L 480 0 480 90 L 480 180 450 180 L 420 180 420 90 L 420 0 360 0 L 300 0 300 30 M 600 120 L 600 180 540 180 L 480 180 480 240 L 480 300 450 300 L 420 300 420 360 L 420 420 450 420 L 480 420 480 360 L 480 300 540 300 L 600 300 600 360 L 600 420 660 420 L 720 420 720 330 L 720 240 660 240 L 600 240 600 210 L 600 180 660 180 L 720 180 720 120 L 720 60 660 60 L 600 60 600 120 M 180 360 L 180 420 120 420 L 60 420 60 450 L 60 480 120 480 L 180 480 180 450 L 180 420 210 420 L 240 420 240 360 L 240 300 210 300 L 180 300 180 360 M 300 690 L 300 720 360 720 L 420 720 420 690 L 420 660 360 660 L 300 660 300 690 M 600 690 L 600 720 660 720 L 720 720 720 690 L 720 660 660 660 L 600 660 600 690 M 240 960 L 240 1020 270 1020 L 300 1020 300 1080 L 300 1140 360 1140 L 420 1140 420 1020 L 420 900 330 900 L 240 900 240 960 M 600 1020 L 600 1140 660 1140 L 720 1140 720 1080 L 720 1020 750 1020 L 780 1020 780 960 L 780 900 690 900 L 600 900 600 1020" stroke="none" fill="#383838" fill-rule="evenodd"/><path d="M 180 210 L 180 240 210 240 L 240 240 240 210 L 240 180 210 180 L 180 180 180 210 M 780 210 L 780 240 810 240 L 840 240 840 210 L 840 180 810 180 L 780 180 780 210 M 300 270 L 300 300 360 300 L 420 300 420 270 L 420 240 360 240 L 300 240 300 270 M 480 270 L 480 300 600 300 L 720 300 720 270 L 720 240 600 240 L 480 240 480 270 M 240 510 L 240 540 210 540 L 180 540 180 630 L 180 720 210 720 L 240 720 240 690 L 240 660 270 660 L 300 660 300 600 L 300 540 360 540 L 420 540 420 600 L 420 660 450 660 L 480 660 480 690 L 480 720 450 720 L 420 720 420 750 L 420 780 510 780 L 600 780 600 750 L 600 720 570 720 L 540 720 540 690 L 540 660 570 660 L 600 660 600 600 L 600 540 660 540 L 720 540 720 600 L 720 660 750 660 L 780 660 780 690 L 780 720 810 720 L 840 720 840 630 L 840 540 810 540 L 780 540 780 510 L 780 480 510 480 L 240 480 240 510 M 180 1080 L 180 1140 210 1140 L 240 1140 240 1080 L 240 1020 210 1020 L 180 1020 180 1080 M 780 1080 L 780 1140 810 1140 L 840 1140 840 1080 L 840 1020 810 1020 L 780 1020 780 1080" stroke="none" fill="#fdeee9" fill-rule="evenodd"/><path d="M 420 120 L 420 180 330 180 L 240 180 240 210 L 240 240 330 240 L 420 240 420 210 L 420 180 450 180 L 480 180 480 210 L 480 240 540 240 L 600 240 600 210 L 600 180 660 180 L 720 180 720 210 L 720 240 750 240 L 780 240 780 210 L 780 180 750 180 L 720 180 720 120 L 720 60 660 60 L 600 60 600 120 L 600 180 540 180 L 480 180 480 120 L 480 60 450 60 L 420 60 420 120 M 180 360 L 180 420 120 420 L 60 420 60 450 L 60 480 120 480 L 180 480 180 450 L 180 420 210 420 L 240 420 240 450 L 240 480 330 480 L 420 480 420 450 L 420 420 450 420 L 480 420 480 450 L 480 480 540 480 L 600 480 600 450 L 600 420 660 420 L 720 420 720 450 L 720 480 780 480 L 840 480 840 450 L 840 420 900 420 L 960 420 960 450 L 960 480 990 480 L 1020 480 1020 450 L 1020 420 990 420 L 960 420 960 360 L 960 300 900 300 L 840 300 840 360 L 840 420 780 420 L 720 420 720 360 L 720 300 660 300 L 600 300 600 360 L 600 420 540 420 L 480 420 480 360 L 480 300 450 300 L 420 300 420 360 L 420 420 330 420 L 240 420 240 360 L 240 300 210 300 L 180 300 180 360 M 180 990 L 180 1020 210 1020 L 240 1020 240 1080 L 240 1140 270 1140 L 300 1140 300 1080 L 300 1020 270 1020 L 240 1020 240 990 L 240 960 210 960 L 180 960 180 990 M 780 990 L 780 1020 750 1020 L 720 1020 720 1080 L 720 1140 750 1140 L 780 1140 780 1080 L 780 1020 810 1020 L 840 1020 840 990 L 840 960 810 960 L 780 960 780 990" stroke="none" fill="#323232" fill-rule="evenodd"/><path d="M 300 30 L 300 60 270 60 L 240 60 240 120 L 240 180 330 180 L 420 180 420 240 L 420 300 360 300 L 300 300 300 270 L 300 240 180 240 L 60 240 60 330 L 60 420 30 420 L 0 420 0 450 L 0 480 30 480 L 60 480 60 570 L 60 660 120 660 L 180 660 180 600 L 180 540 210 540 L 240 540 240 480 L 240 420 330 420 L 420 420 420 450 L 420 480 450 480 L 480 480 480 450 L 480 420 540 420 L 600 420 600 450 L 600 480 660 480 L 720 480 720 450 L 720 420 780 420 L 840 420 840 450 L 840 480 810 480 L 780 480 780 510 L 780 540 810 540 L 840 540 840 600 L 840 660 900 660 L 960 660 960 540 L 960 420 900 420 L 840 420 840 360 L 840 300 900 300 L 960 300 960 270 L 960 240 840 240 L 720 240 720 210 L 720 180 750 180 L 780 180 780 120 L 780 60 750 60 L 720 60 720 30 L 720 0 660 0 L 600 0 600 30 L 600 60 570 60 L 540 60 540 30 L 540 0 510 0 L 480 0 480 90 L 480 180 450 180 L 420 180 420 90 L 420 0 360 0 L 300 0 300 30 M 600 120 L 600 180 540 180 L 480 180 480 240 L 480 300 450 300 L 420 300 420 360 L 420 420 450 420 L 480 420 480 360 L 480 300 540 300 L 600 300 600 360 L 600 420 660 420 L 720 420 720 330 L 720 240 660 240 L 600 240 600 210 L 600 180 660 180 L 720 180 720 120 L 720 60 660 60 L 600 60 600 120 M 180 360 L 180 420 120 420 L 60 420 60 450 L 60 480 120 480 L 180 480 180 450 L 180 420 210 420 L 240 420 240 360 L 240 300 210 300 L 180 300 180 360 M 300 690 L 300 720 360 720 L 420 720 420 690 L 420 660 360 660 L 300 660 300 690 M 600 690 L 600 720 660 720 L 720 720 720 690 L 720 660 660 660 L 600 660 600 690 M 240 960 L 240 1020 270 1020 L 300 1020 300 1080 L 300 1140 360 1140 L 420 1140 420 1020 L 420 900 330 900 L 240 900 240 960 M 600 1020 L 600 1140 660 1140 L 720 1140 720 1080 L 720 1020 750 1020 L 780 1020 780 960 L 780 900 690 900 L 600 900 600 1020" stroke="none" fill="#383838" fill-rule="evenodd"/><path d="M 240 30 L 240 60 210 60 L 180 60 180 120 L 180 180 120 180 L 60 180 60 210 L 60 240 30 240 L 0 240 0 330 L 0 420 30 420 L 60 420 60 330 L 60 240 120 240 L 180 240 180 210 L 180 180 210 180 L 240 180 240 120 L 240 60 270 60 L 300 60 300 30 L 300 0 270 0 L 240 0 240 30 M 420 30 L 420 60 450 60 L 480 60 480 30 L 480 0 450 0 L 420 0 420 30 M 540 30 L 540 60 570 60 L 600 60 600 30 L 600 0 570 0 L 540 0 540 30 M 720 30 L 720 60 750 60 L 780 60 780 120 L 780 180 810 180 L 840 180 840 210 L 840 240 900 240 L 960 240 960 330 L 960 420 990 420 L 1020 420 1020 330 L 1020 240 990 240 L 960 240 960 210 L 960 180 900 180 L 840 180 840 120 L 840 60 810 60 L 780 60 780 30 L 780 0 750 0 L 720 0 720 30 M 0 570 L 0 660 30 660 L 60 660 60 690 L 60 720 120 720 L 180 720 180 750 L 180 780 210 780 L 240 780 240 840 L 240 900 210 900 L 180 900 180 930 L 180 960 120 960 L 60 960 60 1050 L 60 1140 120 1140 L 180 1140 180 1170 L 180 1200 510 1200 L 840 1200 840 1170 L 840 1140 900 1140 L 960 1140 960 1050 L 960 960 900 960 L 840 960 840 930 L 840 900 810 900 L 780 900 780 840 L 780 780 810 780 L 840 780 840 750 L 840 720 900 720 L 960 720 960 690.015 L 960 660.029 990.250 659.765 L 1020.500 659.500 1020.756 569.500 L 1021.012 479.500 990.506 479.778 L 960 480.057 960 570.028 L 960 660 900 660 L 840 660 840 690 L 840 720 810 720 L 780 720 780 750 L 780 780 750 780 L 720 780 720 840 L 720 900 750 900 L 780 900 780 930 L 780 960 810 960 L 840 960 840 1050 L 840 1140 510 1140 L 180 1140 180 1050 L 180 960 210 960 L 240 960 240 930 L 240 900 270 900 L 300 900 300 840 L 300 780 270 780 L 240 780 240 750 L 240 720 210 720 L 180 720 180 690 L 180 660 120 660 L 60 660 60 570 L 60 480 30 480 L 0 480 0 570 M 0.479 570 C 0.479 619.775, 0.601 640.138, 0.750 615.250 C 0.899 590.363, 0.899 549.638, 0.750 524.750 C 0.601 499.863, 0.479 520.225, 0.479 570 M 300 600 L 300 660 360 660 L 420 660 420 600 L 420 540 360 540 L 300 540 300 600 M 600 600 L 600 660 660 660 L 720 660 720 600 L 720 540 660 540 L 600 540 600 600" stroke="none" fill="#181b1d" fill-rule="evenodd"/><path d="" stroke="none" fill="#fceae9" fill-rule="evenodd"/><path d="" stroke="none" fill="#333332" fill-rule="evenodd"/></svg>